<?xml version="1.0" encoding="utf-8"?>
<!-- Generator: Adobe Illustrator 22.1.0, SVG Export Plug-In . SVG Version: 6.00 Build 0)  -->
<svg version="1.1" id="Capa_1" xmlns="http://www.w3.org/2000/svg" xmlns:xlink="http://www.w3.org/1999/xlink" x="0px" y="0px"
	 viewBox="0 0 195 60" style="enable-background:new 0 0 195 60;" xml:space="preserve">
<style type="text/css">
	.st0{fill:#D60022;}
	.st1{fill:#004795;}
	.st2{fill:#3E3D3E;}
</style>
<title>Page 1</title>
<desc>Created with Sketch.</desc>
<g id="Welcome">
	<g id="Desktop" transform="translate(-422.000000, -56.000000)">
		<g id="Page-1" transform="translate(422.000000, 56.000000)">
			<path id="Fill-1" class="st0" d="M108.1,1.2l-7.8,11.1L92.5,1.2h-0.1l-7.9,15v19.4H92V14.2l8.1,10.5l0,0.1h0.3l8.2-10.7v21.3h7.5
				V1.2H108.1z M42.2,28.8v-7.3H56v-6.6H42.2V7.8h15.7V1.2H34.6v34.3H49l3.5-6.6H42.2z M177.5,17.9l10.3-16.8h-8.6l-6.1,10.9
				l-6-10.9h-8.8L168.6,18l-10.6,17.4h8.6L173,24l6.4,11.5h8.8L177.5,17.9z M142.1,21.6l-3.7-10.5l-3.7,10.5H142.1z M134.9,1h7.2
				L155,35.5h-8l-2.7-7.4h-12.1l-2.6,7.4H122L134.9,1z M18.7,12.8c0-3.2-2-5-5.8-5H7.7v10H13C16.5,17.8,18.7,15.9,18.7,12.8
				L18.7,12.8z M26.4,12.6c0,6-3.5,8.8-6.6,10.1l7.6,12.7h-8.8l-6.6-11.2H7.7v11.2H0V1.2h13.6c4.1,0,7.5,1.1,9.8,3.3
				c2,1.9,3,4.7,3,8V12.6z"/>
			<polygon id="Fill-3" class="st1" points="75,1.2 56.9,35.5 66.2,35.5 84.4,1.2 			"/>
			<path id="Fill-5" class="st0" d="M191.4,2.4h0.3c0.4,0,0.7-0.1,0.7-0.5c0-0.2-0.2-0.5-0.7-0.5c-0.1,0-0.3,0-0.3,0V2.4z M191.4,4
				h-0.5V1.2c0.2,0,0.5-0.1,0.8-0.1c0.4,0,0.7,0.1,0.9,0.2c0.2,0.1,0.3,0.3,0.3,0.6c0,0.4-0.3,0.6-0.6,0.7v0c0.3,0,0.4,0.3,0.5,0.7
				c0.1,0.4,0.1,0.6,0.2,0.7h-0.5c-0.1-0.1-0.1-0.3-0.2-0.7c-0.1-0.4-0.3-0.5-0.6-0.5h-0.3V4z M191.9,0.4c-1.1,0-2.1,1-2.1,2.1
				c0,1.2,0.9,2.1,2.1,2.1c1.1,0,2.1-0.9,2.1-2.1C193.9,1.3,193,0.4,191.9,0.4L191.9,0.4z M191.9,0c1.4,0,2.5,1.1,2.5,2.5
				c0,1.4-1.1,2.5-2.5,2.5c-1.4,0-2.6-1.1-2.6-2.5C189.3,1.1,190.5,0,191.9,0L191.9,0z"/>
			<g id="Clip-16">
			</g>
			<g>
				<path class="st2" d="M108.4,41.2h7.2c4.2,0,6.7,2.5,6.7,6.1c0,4.1-3.2,6.2-7.1,6.2h-2.9v5.3h-3.9V41.2z M115.3,50
					c1.9,0,3.1-1.2,3.1-2.7c0-1.7-1.2-2.7-3.1-2.7h-3V50H115.3z"/>
				<path class="st2" d="M129.1,41.2h13.2v3.4H133v3.6h8.3v3.4H133v3.7h9.5v3.4h-13.4V41.2z"/>
				<path class="st2" d="M149.9,41.2h8c2.2,0,4,0.6,5.1,1.8c1,1,1.5,2.4,1.5,4.1c0,2.8-1.5,4.6-3.8,5.4l4.3,6.3h-4.5l-3.8-5.6h-3
					v5.6h-3.9V41.2z M157.7,49.7c1.9,0,3-1,3-2.5c0-1.7-1.2-2.5-3-2.5h-3.8v5H157.7z"/>
				<path class="st2" d="M171.8,51.2v-10h3.9v9.9c0,2.9,1.4,4.3,3.8,4.3s3.8-1.4,3.8-4.2v-10h3.9v9.9c0,5.3-3,7.9-7.7,7.9
					C174.6,59,171.8,56.4,171.8,51.2z M180.5,35.5l3.3,1.4l-3.2,3h-2.9L180.5,35.5z"/>
			</g>
		</g>
	</g>
</g>
</svg>
